<svg width="20" height="20" viewBox="0 0 20 20" fill="none" xmlns="http://www.w3.org/2000/svg">
<path fill-rule="evenodd" clip-rule="evenodd" d="M3 0C1.34315 0 0 1.34315 0 3V16.9998C0 18.6567 1.34315 19.9998 3 19.9998H16.9998C18.6567 19.9998 19.9998 18.6567 19.9998 16.9998V3C19.9998 1.34315 18.6567 0 16.9998 0H3ZM4.50938 13.8607C4.73785 14.0647 5.0125 14.1667 5.33333 14.1667H14.6667C14.9875 14.1667 15.2622 14.0647 15.4906 13.8607C15.7191 13.6567 15.8333 13.4115 15.8333 13.125V6.875C15.8333 6.58854 15.7191 6.34332 15.4906 6.13932C15.2622 5.93533 14.9875 5.83333 14.6667 5.83333H5.33333C5.0125 5.83333 4.73785 5.93533 4.50938 6.13932C4.2809 6.34332 4.16667 6.58854 4.16667 6.875V13.125C4.16667 13.4115 4.2809 13.6567 4.50938 13.8607ZM10.1531 10.4102C10.0997 10.4232 10.0486 10.4297 10 10.4297C9.95139 10.4297 9.90035 10.4232 9.84688 10.4102C9.7934 10.3971 9.74236 10.3776 9.69375 10.3516L5.56667 8.04688C5.48889 8.01215 5.43056 7.96224 5.39167 7.89714C5.35278 7.83203 5.33333 7.75608 5.33333 7.66927C5.33333 7.50434 5.41597 7.3763 5.58125 7.28516C5.74653 7.19401 5.91667 7.19618 6.09167 7.29167L10 9.47917L13.9083 7.29167C14.0833 7.19618 14.2535 7.19184 14.4188 7.27865C14.584 7.36545 14.6667 7.49566 14.6667 7.66927C14.6667 7.7474 14.6472 7.81901 14.6083 7.88411C14.5694 7.94922 14.5111 8.00347 14.4333 8.04688L10.3063 10.3516C10.2576 10.3776 10.2066 10.3971 10.1531 10.4102Z" fill="white"/>
</svg>
