<svg width="122" height="20" viewBox="0 0 122 20" fill="none" xmlns="http://www.w3.org/2000/svg">
<path d="M7.53313 9.352L1.89313 0.904H7.70113L10.1491 5.584L13.1731 0.904H18.9811L13.0051 9.352L19.7491 19H14.0131L10.3891 13.096L6.14113 19H0.453125L7.53313 9.352ZM26.3422 0.904V10.744C26.3422 11.272 26.3582 11.816 26.3902 12.376C26.4382 12.92 26.5582 13.416 26.7502 13.864C26.9582 14.312 27.2782 14.68 27.7102 14.968C28.1422 15.24 28.7502 15.376 29.5342 15.376C30.3182 15.376 30.9182 15.24 31.3342 14.968C31.7662 14.68 32.0862 14.312 32.2942 13.864C32.5022 13.416 32.6222 12.92 32.6542 12.376C32.7022 11.816 32.7262 11.272 32.7262 10.744V0.904H37.4062V11.392C37.4062 14.208 36.7582 16.264 35.4622 17.56C34.1822 18.856 32.2062 19.504 29.5342 19.504C26.8622 19.504 24.8782 18.856 23.5822 17.56C22.2862 16.264 21.6382 14.208 21.6382 11.392V0.904H26.3422ZM50.4391 12.28L48.3271 6.256L46.2151 12.28H50.4391ZM51.6871 15.856H44.9671L43.8871 19H38.8711L45.7591 0.904H50.8951L57.7831 19H52.7671L51.6871 15.856ZM59.8413 19V0.904H64.5453L73.2333 11.968V0.904H77.9133V19H73.2333L64.5453 7.936V19H59.8413ZM81.7085 19V0.904H86.4125L95.1005 11.968V0.904H99.7805V19H95.1005L86.4125 7.936V19H81.7085ZM103.576 19V0.904H108.28L116.968 11.968V0.904H121.648V19H116.968L108.28 7.936V19H103.576Z" fill="white"/>
</svg>
