<svg width="20" height="21" viewBox="0 0 20 21" fill="none" xmlns="http://www.w3.org/2000/svg">
<rect y="0.34375" width="20" height="20" rx="3" fill="white"/>
<path d="M10 1.14453C4.9272 1.14453 0.800049 5.27168 0.800049 10.3445C0.800049 14.2982 3.30708 17.6766 6.8146 18.9753C6.71357 18.0747 6.72942 16.5997 6.89612 15.8856C7.05222 15.2148 7.90461 11.6107 7.90461 11.6107C7.90461 11.6107 7.64729 11.0954 7.64729 10.3343C7.64729 9.13821 8.34026 8.2458 9.20322 8.2458C9.93721 8.2458 10.2911 8.79685 10.2911 9.45708C10.2911 10.1954 9.82175 11.2981 9.57864 12.3202C9.37588 13.1766 10.008 13.8748 10.8521 13.8748C12.3806 13.8748 13.5555 12.263 13.5555 9.93669C13.5555 7.87766 12.0763 6.43782 9.96367 6.43782C7.51697 6.43782 6.08076 8.27324 6.08076 10.1702C6.08076 10.9092 6.36523 11.7017 6.7208 12.133C6.79092 12.2183 6.80117 12.2928 6.78035 12.3794C6.71519 12.651 6.57031 13.2351 6.54153 13.3549C6.50415 13.5126 6.41682 13.5454 6.25408 13.4696C5.17976 12.9695 4.50828 11.3994 4.50828 10.1378C4.50828 7.42517 6.479 4.93347 10.1909 4.93347C13.1744 4.93347 15.4928 7.05901 15.4928 9.90063C15.4928 12.8646 13.6236 15.2498 11.0301 15.2498C10.1585 15.2498 9.3395 14.797 9.05935 14.2622C9.05935 14.2622 8.62803 15.9041 8.52317 16.3066C8.34219 17.0028 7.56746 18.445 7.17854 19.1001C8.06824 19.3875 9.01597 19.5445 10 19.5445C15.0731 19.5445 19.2 15.4176 19.2 10.3445C19.2 5.27168 15.0731 1.14453 10 1.14453Z" fill="white"/>
<path d="M7.38784 14.9521C7.22114 15.6662 7.2053 17.1412 7.30632 18.0418L7.67026 18.1667C8.05918 17.5116 8.83391 16.0693 9.01489 15.3732C9.11975 14.9706 9.55107 13.3287 9.55107 13.3287C9.83123 13.8636 10.6502 14.3164 11.5218 14.3164C14.1154 14.3164 15.9845 11.9312 15.9845 8.96716C15.9845 6.12554 13.6662 4 10.6826 4C6.97073 4 5 6.4917 5 9.20432C5 10.4659 5.67148 12.036 6.7458 12.5362C6.90855 12.6119 6.99587 12.5792 7.03325 12.4214C7.06204 12.3017 7.20691 11.7175 7.27207 11.4459C7.2929 11.3593 7.28264 11.2849 7.21252 11.1995C6.85696 10.7682 6.57249 9.97568 6.57249 9.23674C6.57249 7.33977 8.00869 5.50435 10.4554 5.50435C12.568 5.50435 14.0472 6.94419 14.0472 9.00322C14.0472 11.3295 12.8723 12.9414 11.3438 12.9414C10.4997 12.9414 9.8676 12.2431 10.0704 11.3867C10.3135 10.3647 10.7829 9.26189 10.7829 8.52361C10.7829 7.86338 10.4289 7.31233 9.69495 7.31233C8.83198 7.31233 8.13901 8.20474 8.13901 9.40081C8.13901 10.1619 8.39634 10.6772 8.39634 10.6772C8.39634 10.6772 7.54395 14.2813 7.38784 14.9521Z" fill="black"/>
</svg>
