<svg width="20" height="20" viewBox="0 0 20 20" fill="none" xmlns="http://www.w3.org/2000/svg">
<path d="M2.38095 0C1.06667 0 0 1.06667 0 2.38095V17.619C0 18.9333 1.06667 20 2.38095 20H17.619C18.9333 20 20 18.9333 20 17.619V2.38095C20 1.06667 18.9333 0 17.619 0H2.38095ZM3.80952 6.66667H7.01451C7.36213 6.66667 9.24293 6.64301 9.24293 8.36682C9.24293 9.2811 8.61894 9.59033 8.33798 9.72842C8.75703 9.86176 9.52381 10.2476 9.52381 11.4286C9.52381 13.2524 7.43311 13.3333 7.15216 13.3333H3.80952V6.66667ZM11.9048 6.66667H15.2381V7.61905H11.9048V6.66667ZM5.2381 7.82366V9.38616H6.77176C6.98129 9.38616 7.67578 9.27143 7.67578 8.57143C7.67578 7.87143 6.77128 7.82366 6.63318 7.82366H5.2381ZM13.6812 8.09524C15.5383 8.09524 16.0427 9.54275 16.1189 9.8856C16.1903 10.2332 16.1905 10.5381 16.1905 10.9524H12.4284C12.4284 11.3667 12.6479 12.3 13.7574 12.3C14.0527 12.3 14.2712 12.2289 14.495 12.0908C14.714 11.9527 14.7909 11.8187 14.8624 11.6806H16.1142C15.8952 12.2282 15.6 12.6433 15.1572 12.9195C14.7143 13.1956 14.2 13.3333 13.6096 13.3333C13.2381 13.3333 12.8714 13.2622 12.5 13.1241C12.2048 12.986 11.9099 12.781 11.6908 12.5763C11.4718 12.3667 11.3241 12.0904 11.1765 11.7476C11.0289 11.4714 10.9524 11.0571 10.9524 10.7143C10.9524 10.3714 11.0907 8.09524 13.6812 8.09524ZM13.6812 9.06157C12.605 9.06157 12.4284 10.0952 12.4284 10.1618H14.7907C14.7145 9.81897 14.405 9.06157 13.6812 9.06157ZM5.2381 10.3385V12.1763H6.83408C6.9717 12.1763 7.94271 12.1338 7.94271 11.2909C7.94271 10.4528 7.17979 10.3385 6.83408 10.3385H5.2381Z" fill="white"/>
</svg>
