<svg width="20" height="20" viewBox="0 0 20 20" fill="none" xmlns="http://www.w3.org/2000/svg">
<rect width="20" height="20" rx="5" fill="white"/>
<path d="M10 2.5C5.86426 2.5 2.5 5.86426 2.5 10C2.5 14.1357 5.86426 17.5 10 17.5C14.1357 17.5 17.5 14.1357 17.5 10C17.5 5.86426 14.1357 2.5 10 2.5ZM10 3.75C11.5845 3.75 13.02 4.3457 14.1211 5.3125C14.0039 5.47607 13.8452 5.67383 13.5938 5.91797C13.0591 6.43555 12.2046 7.05811 10.8984 7.53906C10.0146 5.90576 9.14795 4.67773 8.57422 3.90625C9.03076 3.80127 9.50928 3.75 10 3.75ZM7.34375 4.33594C7.85645 5.00732 8.76953 6.25244 9.6875 7.91016C7.146 8.58398 4.81445 8.66943 3.88672 8.67188C4.30176 6.74072 5.60059 5.15137 7.34375 4.33594ZM14.9805 6.23047C15.7422 7.23877 16.2158 8.48633 16.25 9.84375C15.6934 9.71924 14.873 9.59717 13.8086 9.58984C13.2544 9.5874 12.627 9.62647 11.9531 9.70703C11.7969 9.35059 11.6284 9.00635 11.4648 8.67188C12.8662 8.13477 13.8208 7.42676 14.4531 6.81641C14.668 6.60645 14.8364 6.41357 14.9805 6.23047ZM10.2539 9.04297C10.3979 9.3335 10.5444 9.63135 10.6836 9.94141C8.0127 10.6812 6.09375 12.9468 5.27344 14.082C4.32861 12.9883 3.75 11.5625 3.75 10C3.75 9.97314 3.75 9.94873 3.75 9.92188C4.59473 9.93164 7.28027 9.87305 10.2539 9.04297ZM13.8086 10.8203C14.9243 10.8203 15.6958 10.9766 16.1523 11.0938C15.8618 12.7588 14.9219 14.187 13.5938 15.1172C13.3447 13.623 12.9346 12.2021 12.4414 10.8984C12.9346 10.8496 13.4009 10.8203 13.8086 10.8203ZM11.1719 11.1133C11.7334 12.5391 12.2046 14.104 12.4414 15.7617C11.6943 16.0767 10.8643 16.25 10 16.25C8.56689 16.25 7.24365 15.769 6.19141 14.9609C6.8335 14.082 8.7207 11.7432 11.1719 11.1133Z" fill="#222222"/>
</svg>
